<svg width="30" height="30" viewBox="0 0 512 512" fill="none" xmlns="http://www.w3.org/2000/svg">
<g clip-path="url(#clip0_175_2)">
<path d="M479.371 131.029C476.272 131.029 473.217 129.593 471.261 126.89C468.025 122.415 469.028 116.163 473.502 112.927L496.14 96.5515C500.615 93.3125 506.867 94.3185 510.104 98.7925C513.34 103.267 512.337 109.519 507.863 112.755L485.225 129.131C483.453 130.412 481.402 131.029 479.371 131.029Z" fill="white"/>
<path d="M32.63 131.03C30.598 131.03 28.548 130.413 26.776 129.132L4.139 112.756C-0.336 109.519 -1.339 103.268 1.898 98.7926C5.136 94.3186 11.388 93.3146 15.862 96.5516L38.5 112.927C42.975 116.164 43.978 122.415 40.741 126.89C38.785 129.593 35.729 131.03 32.63 131.03Z" fill="white"/>
<path d="M256.001 49.0252C250.479 49.0252 246.001 44.5482 246.001 39.0252V15.1582C246.001 9.6352 250.479 5.1582 256.001 5.1582C261.523 5.1582 266.001 9.6352 266.001 15.1582V39.0242C266.001 44.5472 261.523 49.0252 256.001 49.0252Z" fill="white"/>
<path d="M492.647 215.277L415.148 81.3279C413.361 78.2379 410.062 76.3359 406.493 76.3359H105.507C101.938 76.3359 98.639 78.2379 96.852 81.3279L19.354 215.277C17.262 218.891 17.637 223.424 20.293 226.646L248.284 503.204C250.183 505.509 253.013 506.843 256 506.843C258.987 506.843 261.816 505.509 263.716 503.204L349.347 399.333L350.356 399.732L372.928 457.1C374.433 460.924 378.124 463.438 382.234 463.438C386.344 463.438 390.035 460.924 391.54 457.1L414.112 399.732L471.34 377.109C475.157 375.6 477.664 371.913 477.664 367.809C477.664 363.705 475.157 360.018 471.341 358.509L414.112 335.886L410.086 325.655L491.707 226.646C494.364 223.424 494.739 218.892 492.647 215.277ZM466.653 210.285H352.749L406.486 106.294L466.653 210.285ZM256.001 459.149L188.536 230.286H210.795C216.317 230.286 220.795 225.809 220.795 220.286C220.795 214.763 216.317 210.286 210.795 210.286H193.492L256 107.859L318.508 210.285H301.207C295.685 210.285 291.207 214.762 291.207 220.285C291.207 225.808 295.685 230.285 301.207 230.285H323.467L256.001 459.149ZM335.602 199.903L272.398 96.3359H389.12L335.602 199.903ZM167.684 230.285L233.627 453.982L49.213 230.285H167.684ZM176.397 199.903L122.88 96.3359H239.602L176.397 199.903ZM105.514 106.294L159.25 210.285H45.348L105.514 106.294ZM278.374 453.983L300.21 379.909L329.798 391.605L278.374 453.983ZM440.463 367.809L402.722 382.728C400.145 383.747 398.107 385.788 397.092 388.366L382.235 426.126L367.378 388.366C366.363 385.788 364.325 383.746 361.748 382.728L324.007 367.809L361.749 352.889C364.325 351.87 366.363 349.829 367.378 347.251L382.235 309.491L397.092 347.251C398.107 349.829 400.145 351.871 402.721 352.889L440.463 367.809ZM391.54 278.518C390.035 274.694 386.344 272.18 382.234 272.18C378.124 272.18 374.433 274.694 372.928 278.518L350.356 335.886L308.285 352.517L344.317 230.285H462.787L401.712 304.372L391.54 278.518Z" fill="white"/>
<path d="M256.18 230.291C252.06 230.291 248.283 227.653 246.83 223.808C245.339 219.86 246.561 215.228 249.836 212.553C253.071 209.91 257.733 209.566 261.317 211.711C264.9 213.855 266.813 218.137 265.991 222.24C265.067 226.85 260.888 230.291 256.18 230.291Z" fill="white"/>
</g>
<defs>
<clipPath id="clip0_175_2">
<rect width="512.001" height="512.001" fill="white"/>
</clipPath>
</defs>
</svg>
