<svg width="30" height="30" viewBox="0 0 512 512" fill="none" xmlns="http://www.w3.org/2000/svg">
<g clip-path="url(#clip0_176_18)">
<path d="M256.002 19.9951C251.809 19.9951 247.964 17.2811 246.564 13.3281C245.149 9.33211 246.473 4.76311 249.795 2.13611C253.013 -0.408888 257.605 -0.709888 261.128 1.39511C264.715 3.53911 266.621 7.80311 265.825 11.9071C264.923 16.5501 260.728 19.9951 256.002 19.9951Z" fill="white"/>
<path d="M486.898 258.449C499.45 251.882 507.646 238.336 506.666 223.309C506.025 213.471 501.593 204.47 494.188 197.966C489.278 193.654 483.451 190.781 477.214 189.522C463.105 98.2151 393.868 24.4591 303.198 4.97806C297.799 3.81806 292.475 7.25506 291.315 12.6581C290.153 18.0601 293.593 23.3811 298.995 24.5421C381.037 42.1701 443.808 108.605 457.194 191.032C442.21 196.515 431.946 211.398 433.036 228.115C433.676 237.946 438.102 246.939 445.496 253.441C436.945 257.895 430.578 265.368 427.533 274.543C423.893 285.505 425.698 296.99 431.468 306.046C430.199 305.999 428.92 306.016 427.635 306.1C417.8 306.742 408.805 311.179 402.304 318.593C395.163 326.739 392.257 337.172 393.407 347.173C392.837 346.952 392.259 346.744 391.675 346.55C382.319 343.439 372.316 344.162 363.506 348.582C354.559 353.071 348.228 360.733 345.191 369.526L263.445 280.412L263.284 280.252C259.24 276.211 252.682 276.227 248.658 280.287L248.626 280.319C248.624 280.321 166.794 369.526 166.794 369.526C163.757 360.733 157.426 353.071 148.479 348.582C139.669 344.162 129.662 343.438 120.31 346.55C119.726 346.744 119.148 346.952 118.578 347.173C119.728 337.171 116.822 326.738 109.681 318.592C103.18 311.179 94.185 306.742 84.35 306.1C83.066 306.015 81.787 305.997 80.519 306.044C86.288 296.988 88.093 285.505 84.454 274.544C81.408 265.368 75.041 257.895 66.49 253.441C73.884 246.939 78.309 237.946 78.95 228.115C80.04 211.398 69.777 196.515 54.793 191.032C68.156 108.842 131.146 42.2581 212.689 24.6061C218.055 23.4441 221.755 18.2611 220.715 12.8711C219.649 7.34506 214.26 3.80506 208.787 4.97806C118.507 24.3761 48.868 98.3661 34.771 189.52C28.537 190.78 22.707 193.655 17.798 197.966C10.393 204.47 5.95999 213.47 5.31899 223.309C4.33899 238.337 12.535 251.882 25.087 258.449C14.31 267.952 9.62199 283.339 14.427 297.815C17.534 307.173 24.095 314.761 32.905 319.18C38.115 321.794 43.742 323.115 49.405 323.115C49.882 323.115 50.36 323.105 50.838 323.087C42.25 336.574 43.155 354.671 54.212 367.285C60.713 374.698 69.708 379.135 79.543 379.777C80.365 379.831 81.183 379.857 81.998 379.857C86.596 379.857 91.087 379.009 95.288 377.377C93.59 392.331 101.2 407.457 115.407 414.586C120.617 417.2 126.243 418.52 131.906 418.52C135.82 418.52 139.753 417.889 143.576 416.618C148.549 414.965 153.021 412.333 156.783 408.906L248.575 508.971C248.58 508.976 248.593 508.99 248.615 509.011C252.704 512.973 259.207 512.969 263.335 509.047L263.365 509.018L355.201 408.905C358.963 412.332 363.435 414.963 368.408 416.617C372.232 417.888 376.163 418.519 380.078 418.519C385.74 418.519 391.367 417.199 396.577 414.585C410.783 407.457 418.394 392.33 416.696 377.376C420.897 379.008 425.387 379.856 429.986 379.856C430.801 379.856 431.62 379.83 432.441 379.776C442.276 379.134 451.271 374.697 457.772 367.283C468.829 354.67 469.734 336.574 461.147 323.086C461.624 323.105 462.102 323.114 462.579 323.114C468.241 323.114 473.869 321.793 479.079 319.179C487.888 314.76 494.45 307.172 497.557 297.814C502.363 283.339 497.674 267.952 486.898 258.449ZM468.752 208.841C473.243 208.549 477.593 210.025 480.981 213.001C484.372 215.98 486.403 220.102 486.697 224.611C487.304 233.913 480.238 241.975 470.948 242.582C466.456 242.878 462.107 241.399 458.718 238.423C455.327 235.445 453.297 231.322 453.003 226.814C452.397 217.511 459.462 209.448 468.752 208.841ZM255.992 432.929L223.796 394.672L255.992 356.415L288.187 394.672L255.992 432.929ZM265.998 337.227V312.798L331.925 384.667H305.921L265.998 337.227ZM245.987 312.798V337.227L206.063 384.667H180.06L245.987 312.798ZM25.287 224.61C25.581 220.103 27.611 215.98 31.003 213.001C34.109 210.273 38.017 208.804 42.112 208.804C42.483 208.804 42.858 208.816 43.233 208.84C52.523 209.447 59.588 217.51 58.982 226.813C58.688 231.32 56.658 235.444 53.267 238.422C49.878 241.396 45.539 242.867 41.037 242.581C31.746 241.975 24.68 233.913 25.287 224.61ZM41.878 301.294C37.846 299.271 34.842 295.797 33.419 291.511C30.482 282.662 35.282 273.073 44.119 270.134C45.868 269.553 47.666 269.264 49.456 269.264C52.046 269.264 54.619 269.868 57.002 271.064C61.033 273.087 64.038 276.56 65.461 280.847C68.398 289.696 63.598 299.285 54.76 302.224C50.482 303.646 45.906 303.317 41.878 301.294ZM93.078 355.648C89.689 358.625 85.338 360.102 80.848 359.808C76.349 359.514 72.234 357.484 69.26 354.092C63.115 347.082 63.813 336.377 70.817 330.228C73.922 327.5 77.83 326.031 81.924 326.031C82.297 326.031 82.671 326.043 83.047 326.067C87.546 326.361 91.661 328.391 94.635 331.783C100.777 338.794 100.08 349.5 93.078 355.648ZM137.262 397.628C132.982 399.05 128.408 398.721 124.38 396.699C116.053 392.522 112.676 382.341 116.852 374.004C118.874 369.969 122.343 366.962 126.622 365.539C128.371 364.958 130.168 364.669 131.958 364.669C134.548 364.669 137.122 365.273 139.505 366.469C147.831 370.646 151.209 380.826 147.033 389.163C145.012 393.199 141.541 396.205 137.262 397.628ZM206.063 404.678L245.987 452.118V476.547L180.06 404.678H206.063ZM265.998 476.547V452.118L305.921 404.678H331.925L265.998 476.547ZM387.604 396.699C383.575 398.722 379 399.051 374.722 397.628C370.443 396.205 366.973 393.199 364.951 389.163C360.776 380.826 364.154 370.646 372.479 366.469C376.509 364.447 381.083 364.115 385.362 365.539C389.641 366.962 393.11 369.968 395.132 374.004C399.308 382.341 395.931 392.522 387.604 396.699ZM442.726 354.092C439.752 357.484 435.636 359.515 431.138 359.809C426.65 360.102 422.297 358.626 418.909 355.649C418.908 355.649 418.908 355.649 418.908 355.649C411.905 349.5 411.209 338.794 417.352 331.786C420.326 328.394 424.442 326.363 428.94 326.069C429.315 326.045 429.689 326.033 430.063 326.033C434.157 326.033 438.064 327.502 441.171 330.23C448.173 336.378 448.87 347.083 442.726 354.092ZM478.565 291.511C477.142 295.797 474.139 299.271 470.106 301.294C466.076 303.317 461.502 303.647 457.224 302.224C448.386 299.285 443.586 289.696 446.524 280.846C447.946 276.561 450.95 273.087 454.982 271.064C459.012 269.041 463.586 268.711 467.864 270.134C476.702 273.074 481.502 282.663 478.565 291.511Z" fill="white"/>
</g>
<defs>
<clipPath id="clip0_176_18">
<rect width="511.985" height="511.985" fill="white"/>
</clipPath>
</defs>
</svg>
